<?xml version="1.0" encoding="UTF-8"?>
<svg xmlns="http://www.w3.org/2000/svg" viewBox="0 0 288.86 443.19">
  <defs>
    <style>
      .cls-1 {
        fill: #7c7c7c;
      }

      .cls-2 {
        fill: #898989;
      }

      .cls-3 {
        fill: #767676;
      }

      .cls-4 {
        fill: #bababa;
      }

      .cls-5 {
        fill: #8f8f8f;
      }

      .cls-6 {
        fill: #fff;
      }

      .cls-7 {
        fill: #cdcdcd;
      }

      .cls-8 {
        fill: #9b9b9b;
      }

      .cls-9 {
        fill: #e0e0e0;
      }

      .cls-10 {
        fill: #f9f9f9;
      }

      .cls-11 {
        isolation: isolate;
      }

      .cls-12 {
        fill: #636363;
      }

      .cls-13 {
        fill: #d3d3d3;
      }

      .cls-14 {
        fill: #a8a8a8;
      }

      .cls-15 {
        fill: #b4b4b4;
      }

      .cls-16 {
        fill: #c7c7c7;
      }

      .cls-17 {
        fill: #828282;
      }

      .cls-18 {
        fill: #696969;
      }

      .cls-19 {
        fill: #c1c1c1;
      }

      .cls-20 {
        fill: #aeaeae;
      }

      .cls-21 {
        fill: #959595;
      }

      .cls-22 {
        fill: #dadada;
      }

      .cls-23 {
        fill: #5d5d5d;
      }

      .cls-24 {
        fill: #ececec;
      }

      .cls-25 {
        fill: #707070;
      }

      .cls-26 {
        fill: #f3f3f3;
      }

      .cls-27 {
        fill: #e6e6e6;
      }

      .cls-28 {
        fill: #a2a2a2;
      }

      .cls-29 {
        mix-blend-mode: multiply;
        opacity: .5;
      }
    </style>
  </defs>
  <g class="cls-11">
    <g id="_레이어_2" data-name="레이어_2">
      <g id="_레이어_4" data-name="레이어_4">
        <g class="cls-29">
          <path class="cls-6" d="M10.85,0h267.15c5.99,0,10.85,4.86,10.85,10.85v421.48c0,5.99-4.86,10.85-10.85,10.85H10.85c-5.99,0-10.85-4.86-10.85-10.85V10.85C0,4.86,4.86,0,10.85,0Z"/>
          <path class="cls-10" d="M11.62.48h266.04c5.99,0,10.85,4.86,10.85,10.85v420.53c0,5.99-4.86,10.85-10.85,10.85H11.62c-5.99,0-10.85-4.86-10.85-10.85V11.33C.77,5.34,5.63.48,11.62.48Z"/>
          <path class="cls-26" d="M12.38.95h264.93c5.99,0,10.85,4.86,10.85,10.85v419.57c0,5.99-4.86,10.85-10.85,10.85H12.38c-5.99,0-10.85-4.86-10.85-10.85V11.8C1.54,5.81,6.4.95,12.38.95Z"/>
          <path class="cls-24" d="M13.14,1.43h263.82c5.98,0,10.84,4.86,10.84,10.84v418.62c0,5.98-4.86,10.84-10.84,10.84H13.15c-5.98,0-10.84-4.86-10.84-10.84V12.27C2.3,6.29,7.16,1.43,13.14,1.43Z"/>
          <path class="cls-27" d="M13.91,1.91h262.71c5.98,0,10.84,4.86,10.84,10.84v417.66c0,5.98-4.86,10.84-10.84,10.84H13.91c-5.98,0-10.84-4.86-10.84-10.84V12.75C3.07,6.76,7.93,1.91,13.91,1.91Z"/>
          <path class="cls-9" d="M14.67,2.39h261.6c5.98,0,10.83,4.85,10.83,10.83v416.71c0,5.98-4.85,10.83-10.83,10.83H14.67c-5.98,0-10.83-4.85-10.83-10.83V13.22C3.84,7.24,8.69,2.39,14.67,2.39Z"/>
          <path class="cls-22" d="M15.44,2.86h260.48c5.98,0,10.83,4.85,10.83,10.83v415.76c0,5.98-4.85,10.83-10.83,10.83H15.44c-5.98,0-10.83-4.85-10.83-10.83V13.69c0-5.98,4.85-10.83,10.83-10.83Z"/>
          <path class="cls-13" d="M16.2,3.34h259.37c5.97,0,10.83,4.85,10.83,10.83v414.8c0,5.98-4.85,10.83-10.83,10.83H16.2c-5.97,0-10.83-4.85-10.83-10.83V14.17c0-5.97,4.85-10.83,10.83-10.83Z"/>
          <path class="cls-7" d="M16.96,3.82h258.26c5.97,0,10.82,4.85,10.82,10.82v413.85c0,5.97-4.85,10.82-10.82,10.82H16.96c-5.97,0-10.82-4.85-10.82-10.82V14.64c0-5.97,4.85-10.82,10.82-10.82Z"/>
          <path class="cls-16" d="M17.73,4.29h257.15c5.97,0,10.82,4.85,10.82,10.82v412.9c0,5.97-4.85,10.82-10.82,10.82H17.73c-5.97,0-10.82-4.85-10.82-10.82V15.11c0-5.97,4.85-10.82,10.82-10.82Z"/>
          <path class="cls-19" d="M18.49,4.77h256.04c5.97,0,10.81,4.85,10.81,10.81v411.94c0,5.97-4.85,10.81-10.81,10.81H18.49c-5.97,0-10.81-4.85-10.81-10.81V15.58c0-5.97,4.85-10.81,10.81-10.81Z"/>
          <path class="cls-4" d="M19.25,5.25h254.93c5.97,0,10.81,4.84,10.81,10.81v410.99c0,5.97-4.84,10.81-10.81,10.81H19.25c-5.97,0-10.81-4.84-10.81-10.81V16.06c0-5.97,4.84-10.81,10.81-10.81Z"/>
          <path class="cls-15" d="M20.02,5.73h253.82c5.96,0,10.81,4.84,10.81,10.81v410.03c0,5.96-4.84,10.81-10.81,10.81H20.02c-5.96,0-10.81-4.84-10.81-10.81V16.53c0-5.96,4.84-10.8,10.8-10.8Z"/>
          <rect class="cls-20" x="9.98" y="6.2" width="274.31" height="430.68" rx="10.8" ry="10.8"/>
          <rect class="cls-14" x="10.75" y="6.68" width="273.19" height="429.72" rx="10.8" ry="10.8"/>
          <rect class="cls-28" x="11.52" y="7.16" width="272.08" height="428.76" rx="10.79" ry="10.79"/>
          <rect class="cls-8" x="12.28" y="7.63" width="270.96" height="427.8" rx="10.79" ry="10.79"/>
          <rect class="cls-21" x="13.05" y="8.11" width="269.84" height="426.83" rx="10.78" ry="10.78"/>
          <path class="cls-5" d="M24.6,8.59h247.16c5.95,0,10.78,4.83,10.78,10.78v404.31c0,5.95-4.83,10.78-10.78,10.78H24.6c-5.95,0-10.78-4.83-10.78-10.78V19.37c0-5.95,4.83-10.78,10.78-10.78Z"/>
          <path class="cls-2" d="M25.36,9.07h246.05c5.95,0,10.78,4.83,10.78,10.78v403.36c0,5.95-4.83,10.78-10.78,10.78H25.36c-5.95,0-10.78-4.83-10.78-10.78V19.84c0-5.95,4.83-10.78,10.78-10.78Z"/>
          <path class="cls-17" d="M26.13,9.54h244.94c5.95,0,10.77,4.83,10.77,10.77v402.4c0,5.95-4.83,10.77-10.77,10.77H26.13c-5.95,0-10.77-4.83-10.77-10.77V20.32c0-5.95,4.83-10.77,10.77-10.77Z"/>
          <path class="cls-1" d="M26.89,10.02h243.83c5.94,0,10.77,4.83,10.77,10.77v401.45c0,5.94-4.83,10.77-10.77,10.77H26.89c-5.94,0-10.77-4.83-10.77-10.77V20.79c0-5.94,4.83-10.77,10.77-10.77Z"/>
          <path class="cls-3" d="M27.65,10.5h242.72c5.94,0,10.76,4.82,10.76,10.76v400.49c0,5.94-4.82,10.76-10.76,10.76H27.65c-5.94,0-10.76-4.82-10.76-10.76V21.26c0-5.94,4.82-10.76,10.76-10.76Z"/>
          <path class="cls-25" d="M28.42,10.97h241.61c5.94,0,10.76,4.82,10.76,10.76v399.54c0,5.94-4.82,10.76-10.76,10.76H28.42c-5.94,0-10.76-4.82-10.76-10.76V21.73c0-5.94,4.82-10.76,10.76-10.76Z"/>
          <path class="cls-18" d="M29.18,11.45h240.49c5.94,0,10.76,4.82,10.76,10.76v398.59c0,5.94-4.82,10.76-10.76,10.76H29.18c-5.94,0-10.76-4.82-10.76-10.76V22.21c0-5.94,4.82-10.76,10.76-10.76Z"/>
          <path class="cls-12" d="M29.95,11.93h239.38c5.93,0,10.75,4.82,10.75,10.75v397.63c0,5.93-4.82,10.75-10.75,10.75H29.95c-5.93,0-10.75-4.82-10.75-10.75V22.68c0-5.93,4.82-10.75,10.75-10.75Z"/>
          <rect class="cls-23" x="19.96" y="12.41" width="259.77" height="418.17" rx="10.75" ry="10.75"/>
        </g>
      </g>
    </g>
  </g>
</svg>